<?xml version="1.0" encoding="UTF-8"?>
<svg id="Layer_1" data-name="Layer 1" xmlns="http://www.w3.org/2000/svg" version="1.1" xmlns:xlink="http://www.w3.org/1999/xlink" viewBox="0 0 954.8 363">
  <defs>
    <style>
      .cls-1 {
        fill: #4c8898;
      }

      .cls-1, .cls-2, .cls-3, .cls-4, .cls-5, .cls-6, .cls-7, .cls-8, .cls-9, .cls-10, .cls-11, .cls-12, .cls-13, .cls-14, .cls-15, .cls-16, .cls-17, .cls-18, .cls-19, .cls-20, .cls-21, .cls-22, .cls-23, .cls-24, .cls-25, .cls-26, .cls-27, .cls-28, .cls-29, .cls-30, .cls-31, .cls-32, .cls-33, .cls-34, .cls-35, .cls-36, .cls-37, .cls-38, .cls-39, .cls-40, .cls-41, .cls-42, .cls-43, .cls-44, .cls-45, .cls-46, .cls-47, .cls-48, .cls-49, .cls-50, .cls-51, .cls-52, .cls-53, .cls-54, .cls-55, .cls-56, .cls-57, .cls-58, .cls-59, .cls-60, .cls-61, .cls-62, .cls-63, .cls-64, .cls-65, .cls-66, .cls-67, .cls-68, .cls-69, .cls-70, .cls-71, .cls-72, .cls-73, .cls-74, .cls-75, .cls-76, .cls-77, .cls-78, .cls-79, .cls-80, .cls-81, .cls-82, .cls-83, .cls-84, .cls-85, .cls-86, .cls-87, .cls-88, .cls-89, .cls-90, .cls-91, .cls-92, .cls-93, .cls-94, .cls-95, .cls-96, .cls-97, .cls-98, .cls-99, .cls-100, .cls-101, .cls-102, .cls-103, .cls-104, .cls-105, .cls-106, .cls-107, .cls-108, .cls-109, .cls-110, .cls-111, .cls-112, .cls-113, .cls-114, .cls-115, .cls-116, .cls-117, .cls-118, .cls-119, .cls-120, .cls-121, .cls-122, .cls-123, .cls-124, .cls-125, .cls-126, .cls-127, .cls-128, .cls-129, .cls-130, .cls-131, .cls-132, .cls-133, .cls-134, .cls-135, .cls-136, .cls-137, .cls-138, .cls-139, .cls-140, .cls-141, .cls-142, .cls-143, .cls-144, .cls-145 {
        stroke-width: 0px;
      }

      .cls-2 {
        fill: #3c5070;
      }

      .cls-3 {
        fill: #467484;
      }

      .cls-4 {
        fill: #539896;
      }

      .cls-5 {
        fill: #549b97;
      }

      .cls-6 {
        fill: #539996;
      }

      .cls-7 {
        fill: #384166;
      }

      .cls-8 {
        fill: #4c868e;
      }

      .cls-9 {
        fill: #3a486b;
      }

      .cls-10 {
        fill: #4d8b90;
      }

      .cls-11 {
        fill: #3b4e6e;
      }

      .cls-12 {
        fill: #477786;
      }

      .cls-13 {
        fill: #3a486a;
      }

      .cls-14 {
        fill: #549c97;
      }

      .cls-15 {
        fill: #000;
      }

      .cls-16 {
        fill: #529795;
      }

      .cls-17 {
        fill: #519494;
      }

      .cls-18 {
        fill: #4f8f92;
      }

      .cls-19 {
        fill: #3d5774;
      }

      .cls-20 {
        fill: #3f5c77;
      }

      .cls-21 {
        fill: #42677d;
      }

      .cls-22 {
        fill: #383f65;
      }

      .cls-23 {
        fill: #4a828c;
      }

      .cls-24 {
        fill: #3d5773;
      }

      .cls-25 {
        fill: #40617a;
      }

      .cls-26 {
        fill: #3d5673;
      }

      .cls-27 {
        fill: #363961;
      }

      .cls-28 {
        fill: #487b88;
      }

      .cls-29 {
        fill: #394569;
      }

      .cls-30 {
        fill: #509293;
      }

      .cls-31 {
        fill: #446e81;
      }

      .cls-32 {
        fill: #3a4b6d;
      }

      .cls-33 {
        fill: #36365f;
      }

      .cls-34 {
        fill: #39476a;
      }

      .cls-35 {
        fill: #373a62;
      }

      .cls-36 {
        fill: #40627a;
      }

      .cls-37 {
        fill: #497e89;
      }

      .cls-38 {
        fill: #436b7f;
      }

      .cls-39 {
        fill: #477a87;
      }

      .cls-40 {
        fill: #3d5874;
      }

      .cls-41 {
        fill: #3e5874;
      }

      .cls-42 {
        fill: #529896;
      }

      .cls-43 {
        fill: #3c5372;
      }

      .cls-44 {
        fill: #373c63;
      }

      .cls-45 {
        fill: #3e5a76;
      }

      .cls-46 {
        fill: #394468;
      }

      .cls-47 {
        fill: #363962;
      }

      .cls-48 {
        fill: #457384;
      }

      .cls-49 {
        fill: #3c506f;
      }

      .cls-50 {
        fill: #4a818b;
      }

      .cls-51 {
        fill: #467685;
      }

      .cls-52 {
        fill: #3d5472;
      }

      .cls-53 {
        fill: #539a97;
      }

      .cls-54 {
        fill: #363861;
      }

      .cls-55 {
        fill: #446f81;
      }

      .cls-56 {
        fill: none;
      }

      .cls-57 {
        fill: #4d898f;
      }

      .cls-58 {
        fill: #40637b;
      }

      .cls-59 {
        fill: #3c5371;
      }

      .cls-60 {
        fill: #3a4b6c;
      }

      .cls-61 {
        fill: #41657c;
      }

      .cls-62 {
        fill: #447082;
      }

      .cls-63 {
        fill: #363860;
      }

      .cls-64 {
        fill: #4e8e91;
      }

      .cls-65 {
        fill: #467786;
      }

      .cls-66 {
        fill: #477987;
      }

      .cls-67 {
        fill: #56a099;
      }

      .cls-68 {
        fill: #559e98;
      }

      .cls-69 {
        fill: #549a97;
      }

      .cls-70 {
        fill: #447183;
      }

      .cls-71 {
        fill: #559f99;
      }

      .cls-72 {
        fill: #373d64;
      }

      .cls-73 {
        fill: #529695;
      }

      .cls-74 {
        fill: #406079;
      }

      .cls-75 {
        fill: #446f82;
      }

      .cls-76 {
        fill: #3c5170;
      }

      .cls-77 {
        fill: #497e8a;
      }

      .cls-78 {
        fill: #384267;
      }

      .cls-79 {
        fill: #509394;
      }

      .cls-80 {
        fill: #559e99;
      }

      .cls-81 {
        fill: #42687e;
      }

      .cls-82 {
        fill: #383e65;
      }

      .cls-83 {
        fill: #4e8c90;
      }

      .cls-84 {
        fill: #3c5271;
      }

      .cls-85 {
        fill: #487c88;
      }

      .cls-86 {
        fill: #436e81;
      }

      .cls-87 {
        fill: #426a7f;
      }

      .cls-88 {
        fill: #3e5a75;
      }

      .cls-89 {
        fill: #394669;
      }

      .cls-90 {
        fill: #509193;
      }

      .cls-91 {
        fill: #3f5d77;
      }

      .cls-92 {
        fill: #373b63;
      }

      .cls-93 {
        fill: #487d89;
      }

      .cls-94 {
        fill: #549d98;
      }

      .cls-95 {
        fill: #4f9092;
      }

      .cls-96 {
        fill: #436c80;
      }

      .cls-97 {
        fill: #4e8d91;
      }

      .cls-98 {
        fill: #4f8e91;
      }

      .cls-99 {
        fill: #3a496b;
      }

      .cls-100 {
        fill: #457484;
      }

      .cls-146 {
        clip-path: url(#clippath);
      }

      .cls-101 {
        fill: #497f8a;
      }

      .cls-102 {
        fill: #35345f;
      }

      .cls-103 {
        fill: #4a828b;
      }

      .cls-104 {
        fill: #436d80;
      }

      .cls-105 {
        fill: #457283;
      }

      .cls-106 {
        fill: #4c878e;
      }

      .cls-107 {
        fill: #394368;
      }

      .cls-108 {
        fill: #4d8a90;
      }

      .cls-109 {
        fill: #3b4f6f;
      }

      .cls-110 {
        fill: #3b4d6e;
      }

      .cls-111 {
        fill: #363760;
      }

      .cls-112 {
        fill: #3e5975;
      }

      .cls-113 {
        fill: #4c888e;
      }

      .cls-114 {
        fill: #384167;
      }

      .cls-115 {
        fill: #41667c;
      }

      .cls-116 {
        fill: #467585;
      }

      .cls-117 {
        fill: #406179;
      }

      .cls-118 {
        fill: #373e64;
      }

      .cls-119 {
        fill: #384066;
      }

      .cls-120 {
        fill: #3f5e78;
      }

      .cls-121 {
        fill: #4b848c;
      }

      .cls-122 {
        fill: #3d5573;
      }

      .cls-123 {
        fill: #363660;
      }

      .cls-124 {
        fill: #41667d;
      }

      .cls-125 {
        fill: #4b838c;
      }

      .cls-126 {
        fill: #3a4a6c;
      }

      .cls-127 {
        fill: #373b62;
      }

      .cls-128 {
        fill: #519594;
      }

      .cls-129 {
        fill: #549c98;
      }

      .cls-130 {
        fill: #519595;
      }

      .cls-131 {
        fill: #4b868d;
      }

      .cls-132 {
        fill: #477a88;
      }

      .cls-133 {
        fill: #35355f;
      }

      .cls-134 {
        fill: #41647b;
      }

      .cls-135 {
        fill: #4d8a8f;
      }

      .cls-136 {
        fill: #49808a;
      }

      .cls-137 {
        fill: #4a838c;
      }

      .cls-138 {
        fill: #559d98;
      }

      .cls-139 {
        fill: #3e5b76;
      }

      .cls-140 {
        fill: #42697e;
      }

      .cls-141 {
        fill: #3b4c6d;
      }

      .cls-142 {
        fill: #4b858d;
      }

      .cls-143 {
        fill: #3f5f78;
      }

      .cls-144 {
        fill: #477886;
      }

      .cls-145 {
        fill: #39466a;
      }
    </style>
    <clipPath id="clippath">
      <path class="cls-56" d="M325.1,106.6l-57.5,57.5-30.2,30.2,27.2,27.2.3.3,39.1-39.1v4.3c0,61.8-50.1,111.9-111.9,111.9s-111.9-50.1-111.9-111.9,50.1-111.9,111.9-111.9,65.8,11.6,93.1,49l31.4-31.2c-37-45.8-74.4-62.6-124.6-62.6-86.6,0-156.7,70.2-156.7,156.7s70.2,156.7,156.7,156.7,156.7-70.2,156.7-156.7v-1.7l36.5,36.5,27.5-27.5-87.7-87.7Z"/>
    </clipPath>
  </defs>
  <path class="cls-15" d="M1272.2-613.1h-.9"/>
  <g>
    <g>
      <path class="cls-102" d="M424.7,272.1c0,5.9-1.2,11.3-3.7,16.1-2.5,4.9-6,8.7-10.7,11.5l15.4,10-6.3,9.3-22.5-15c-.5,0-1.1.1-1.7.1-.6,0-1.2,0-1.8,0-5,0-9.4-.9-13.3-2.6-3.9-1.7-7.1-4-9.8-6.9-2.7-2.9-4.7-6.3-6-10.2-1.4-3.9-2-8-2-12.4s.7-8.5,2-12.4c1.4-3.9,3.4-7.3,6-10.2,2.7-2.9,5.9-5.2,9.8-6.9,3.9-1.7,8.3-2.6,13.3-2.6s9.4.9,13.3,2.6c3.9,1.7,7.1,4,9.8,6.9,2.6,2.9,4.7,6.3,6,10.2,1.4,3.9,2.1,8,2.1,12.4ZM393.5,294c3,0,5.7-.6,8-1.7,2.3-1.1,4.2-2.7,5.7-4.6,1.5-2,2.7-4.3,3.4-6.9.7-2.7,1.1-5.5,1.1-8.7s-.4-6-1.1-8.7c-.7-2.7-1.9-5-3.4-6.9-1.5-2-3.4-3.5-5.7-4.6-2.3-1.1-4.9-1.7-8-1.7s-5.7.6-8,1.7c-2.3,1.1-4.2,2.7-5.7,4.6-1.5,2-2.7,4.3-3.4,6.9s-1.1,5.6-1.1,8.7.4,6,1.1,8.7c.7,2.7,1.9,5,3.4,6.9,1.5,2,3.4,3.5,5.7,4.6,2.3,1.1,4.9,1.7,8,1.7Z"/>
      <path class="cls-102" d="M472.7,241.2h13v39.6c0,3.5-.6,6.7-1.8,9.6-1.2,2.9-2.9,5.3-5,7.4-2.2,2-4.9,3.6-8,4.7-3.2,1.1-6.8,1.7-10.7,1.7s-7.6-.6-10.8-1.7-5.8-2.7-8-4.7c-2.2-2-3.8-4.5-5-7.4-1.2-2.9-1.8-6.1-1.8-9.6v-39.6h13v40.3c0,3.9,1.1,7,3.2,9.2,2.1,2.2,5.2,3.3,9.4,3.3s7.3-1.1,9.4-3.3c2.1-2.2,3.2-5.3,3.2-9.2v-40.3Z"/>
      <path class="cls-102" d="M512,303.1h-13v-62h13v62Z"/>
      <path class="cls-102" d="M525.5,241.2h37.2v10.3h-24.2v15h23.1v10.3h-23.1v16h24.5v10.3h-37.5v-62Z"/>
      <path class="cls-102" d="M619.2,260.1c0,4.4-1.2,8.1-3.7,11.1-2.5,3-6,5.3-10.7,6.9l20.9,25h-16.2l-18-22.6h-4.2v22.6h-13v-62h18.5c3.8,0,7.4.4,10.6,1.2,3.2.8,6,2,8.3,3.5,2.3,1.6,4.1,3.6,5.4,5.9,1.3,2.4,2,5.1,2,8.3ZM606.2,260.3c0-3.2-1.2-5.5-3.7-6.9-2.5-1.4-5.7-2.1-9.7-2.1h-5.4v19.4h3.9c4.5,0,8.1-.9,10.8-2.6,2.7-1.7,4.1-4.3,4.1-7.7Z"/>
      <path class="cls-102" d="M690.8,272.1c0,4.4-.7,8.5-2.1,12.4-1.4,3.9-3.4,7.3-6,10.2-2.6,2.9-5.9,5.2-9.8,6.9-3.9,1.7-8.3,2.6-13.3,2.6s-9.4-.9-13.3-2.6c-3.9-1.7-7.2-4-9.8-6.9-2.7-2.9-4.7-6.3-6-10.2s-2-8-2-12.4.7-8.5,2-12.4c1.4-3.9,3.4-7.3,6-10.2,2.7-2.9,5.9-5.2,9.8-6.9,3.9-1.7,8.3-2.6,13.3-2.6s9.4.9,13.3,2.6c3.9,1.7,7.1,4,9.8,6.9,2.6,2.9,4.7,6.3,6,10.2,1.4,3.9,2.1,8,2.1,12.4ZM659.7,294c3,0,5.7-.6,8-1.7,2.3-1.1,4.2-2.7,5.7-4.6,1.5-2,2.7-4.3,3.4-6.9.7-2.7,1.1-5.5,1.1-8.7s-.4-6-1.1-8.7-1.9-5-3.4-6.9c-1.5-2-3.4-3.5-5.7-4.6-2.3-1.1-4.9-1.7-8-1.7s-5.7.6-8,1.7c-2.3,1.1-4.2,2.7-5.7,4.6-1.5,2-2.7,4.3-3.4,6.9s-1.1,5.6-1.1,8.7.4,6,1.1,8.7c.7,2.7,1.9,5,3.4,6.9,1.5,2,3.4,3.5,5.7,4.6,2.3,1.1,4.9,1.7,8,1.7Z"/>
      <path class="cls-102" d="M753.1,241.2h11.7l4.6,62h-12.7l-2.1-38.5-13.7,28.1h-13.4l-13.7-28.1-2.1,38.5h-12.7l4.6-62h11.7l19,40,19-40Z"/>
      <path class="cls-102" d="M793.8,303.1h-13v-62h13v62Z"/>
      <path class="cls-102" d="M850.5,260.7c0,3.4-.7,6.4-2.1,8.9-1.4,2.5-3.4,4.7-5.9,6.4-2.5,1.7-5.4,3-8.8,3.8-3.4.8-7,1.3-10.8,1.3h-2.5v22.1h-13v-62h16.9c3.7,0,7.2.4,10.4,1.2,3.2.8,6,2,8.3,3.6s4.2,3.6,5.5,6.1c1.3,2.5,2,5.3,2,8.7ZM837.5,260.7c0-3.2-1.2-5.6-3.6-7.1-2.4-1.5-5.6-2.3-9.7-2.3h-3.8v19.6h3.2c4.3,0,7.8-.8,10.2-2.5,2.5-1.7,3.7-4.2,3.7-7.7Z"/>
      <path class="cls-102" d="M872,303.1h-13v-62h13v62Z"/>
      <path class="cls-102" d="M885.5,241.2h37.2v10.3h-24.2v15h23.1v10.3h-23.1v16h24.5v10.3h-37.5v-62Z"/>
    </g>
    <g class="cls-146">
      <path class="cls-102" d="M35.4,30.3v313.4V30.3Z"/>
      <rect class="cls-102" x="35.4" y="30.3" width="1.9" height="313.4"/>
      <rect class="cls-133" x="37.3" y="30.3" width="1.9" height="313.4"/>
      <rect class="cls-133" x="39.2" y="30.3" width="1.9" height="313.4"/>
      <rect class="cls-33" x="41.1" y="30.3" width="1.9" height="313.4"/>
      <rect class="cls-123" x="43" y="30.3" width="1.9" height="313.4"/>
      <rect class="cls-111" x="44.9" y="30.3" width="1.9" height="313.4"/>
      <rect class="cls-111" x="46.8" y="30.3" width="1.9" height="313.4"/>
      <rect class="cls-63" x="48.7" y="30.3" width="1.9" height="313.4"/>
      <rect class="cls-54" x="50.6" y="30.3" width="1.9" height="313.4"/>
      <rect class="cls-54" x="52.5" y="30.3" width="1.9" height="313.4"/>
      <rect class="cls-27" x="54.5" y="30.3" width="1.9" height="313.4"/>
      <rect class="cls-47" x="56.4" y="30.3" width="1.9" height="313.4"/>
      <rect class="cls-35" x="58.3" y="30.3" width="1.9" height="313.4"/>
      <rect class="cls-35" x="60.2" y="30.3" width="1.9" height="313.4"/>
      <rect class="cls-127" x="62.1" y="30.3" width="1.9" height="313.4"/>
      <rect class="cls-92" x="64" y="30.3" width="1.9" height="313.4"/>
      <rect class="cls-44" x="65.9" y="30.3" width="1.9" height="313.4"/>
      <rect class="cls-44" x="67.8" y="30.3" width="1.9" height="313.4"/>
      <rect class="cls-72" x="69.7" y="30.3" width="1.9" height="313.4"/>
      <rect class="cls-72" x="71.6" y="30.3" width="1.9" height="313.4"/>
      <rect class="cls-118" x="73.5" y="30.3" width="1.9" height="313.4"/>
      <rect class="cls-82" x="75.4" y="30.3" width="1.9" height="313.4"/>
      <rect class="cls-22" x="77.3" y="30.3" width="1.9" height="313.4"/>
      <rect class="cls-22" x="79.2" y="30.3" width="1.9" height="313.4"/>
      <rect class="cls-119" x="81.1" y="30.3" width="1.9" height="313.4"/>
      <rect class="cls-119" x="83" y="30.3" width="1.9" height="313.4"/>
      <rect class="cls-7" x="85" y="30.3" width="1.9" height="313.4"/>
      <rect class="cls-114" x="86.9" y="30.3" width="1.9" height="313.4"/>
      <rect class="cls-78" x="88.8" y="30.3" width="1.9" height="313.4"/>
      <rect class="cls-78" x="90.7" y="30.3" width="1.9" height="313.4"/>
      <rect class="cls-107" x="92.6" y="30.3" width="1.9" height="313.4"/>
      <rect class="cls-107" x="94.5" y="30.3" width="1.9" height="313.4"/>
      <rect class="cls-46" x="96.4" y="30.3" width="1.9" height="313.4"/>
      <rect class="cls-29" x="98.3" y="30.3" width="1.9" height="313.4"/>
      <rect class="cls-29" x="100.2" y="30.3" width="1.9" height="313.4"/>
      <rect class="cls-89" x="102.1" y="30.3" width="1.9" height="313.4"/>
      <rect class="cls-145" x="104" y="30.3" width="1.9" height="313.4"/>
      <rect class="cls-34" x="105.9" y="30.3" width="1.9" height="313.4"/>
      <rect class="cls-34" x="107.8" y="30.3" width="1.9" height="313.4"/>
      <rect class="cls-13" x="109.7" y="30.3" width="1.9" height="313.4"/>
      <rect class="cls-9" x="111.6" y="30.3" width="1.9" height="313.4"/>
      <rect class="cls-99" x="113.5" y="30.3" width="1.9" height="313.4"/>
      <rect class="cls-99" x="115.5" y="30.3" width="1.9" height="313.4"/>
      <rect class="cls-126" x="117.4" y="30.3" width="1.9" height="313.4"/>
      <rect class="cls-126" x="119.3" y="30.3" width="1.9" height="313.4"/>
      <rect class="cls-60" x="121.2" y="30.3" width="1.9" height="313.4"/>
      <rect class="cls-32" x="123.1" y="30.3" width="1.9" height="313.4"/>
      <rect class="cls-141" x="125" y="30.3" width="1.9" height="313.4"/>
      <rect class="cls-141" x="126.9" y="30.3" width="1.9" height="313.4"/>
      <rect class="cls-110" x="128.8" y="30.3" width="1.9" height="313.4"/>
      <rect class="cls-110" x="130.7" y="30.3" width="1.9" height="313.4"/>
      <rect class="cls-11" x="132.6" y="30.3" width="1.9" height="313.4"/>
      <rect class="cls-11" x="134.5" y="30.3" width="1.9" height="313.4"/>
      <rect class="cls-109" x="136.4" y="30.3" width="1.9" height="313.4"/>
      <rect class="cls-109" x="138.3" y="30.3" width="1.9" height="313.4"/>
      <rect class="cls-49" x="140.2" y="30.3" width="1.9" height="313.4"/>
      <rect class="cls-2" x="142.1" y="30.3" width="1.9" height="313.4"/>
      <rect class="cls-76" x="144" y="30.3" width="1.9" height="313.4"/>
      <rect class="cls-76" x="146" y="30.3" width="1.9" height="313.4"/>
      <rect class="cls-84" x="147.9" y="30.3" width="1.9" height="313.4"/>
      <rect class="cls-84" x="149.8" y="30.3" width="1.9" height="313.4"/>
      <rect class="cls-59" x="151.7" y="30.3" width="1.9" height="313.4"/>
      <rect class="cls-43" x="153.6" y="30.3" width="1.9" height="313.4"/>
      <rect class="cls-52" x="155.5" y="30.3" width="1.9" height="313.4"/>
      <rect class="cls-52" x="157.4" y="30.3" width="1.9" height="313.4"/>
      <rect class="cls-122" x="159.3" y="30.3" width="1.9" height="313.4"/>
      <rect class="cls-26" x="161.2" y="30.3" width="1.9" height="313.4"/>
      <rect class="cls-26" x="163.1" y="30.3" width="1.9" height="313.4"/>
      <rect class="cls-24" x="165" y="30.3" width="1.9" height="313.4"/>
      <rect class="cls-19" x="166.9" y="30.3" width="1.9" height="313.4"/>
      <rect class="cls-40" x="168.8" y="30.3" width="1.9" height="313.4"/>
      <rect class="cls-41" x="170.7" y="30.3" width="1.9" height="313.4"/>
      <rect class="cls-112" x="172.6" y="30.3" width="1.9" height="313.4"/>
      <rect class="cls-112" x="174.5" y="30.3" width="1.9" height="313.4"/>
      <rect class="cls-88" x="176.5" y="30.3" width="1.9" height="313.4"/>
      <rect class="cls-45" x="178.4" y="30.3" width="1.9" height="313.4"/>
      <rect class="cls-139" x="180.3" y="30.3" width="1.9" height="313.4"/>
      <rect class="cls-139" x="182.2" y="30.3" width="1.9" height="313.4"/>
      <rect class="cls-20" x="184.1" y="30.3" width="1.9" height="313.4"/>
      <rect class="cls-20" x="186" y="30.3" width="1.9" height="313.4"/>
      <rect class="cls-91" x="187.9" y="30.3" width="1.9" height="313.4"/>
      <rect class="cls-91" x="189.8" y="30.3" width="1.9" height="313.4"/>
      <rect class="cls-120" x="191.7" y="30.3" width="1.9" height="313.4"/>
      <rect class="cls-143" x="193.6" y="30.3" width="1.9" height="313.4"/>
      <rect class="cls-143" x="195.5" y="30.3" width="1.9" height="313.4"/>
      <rect class="cls-74" x="197.4" y="30.3" width="1.9" height="313.4"/>
      <rect class="cls-74" x="199.3" y="30.3" width="1.9" height="313.4"/>
      <rect class="cls-117" x="201.2" y="30.3" width="1.9" height="313.4"/>
      <rect class="cls-25" x="203.1" y="30.3" width="1.9" height="313.4"/>
      <rect class="cls-36" x="205" y="30.3" width="1.9" height="313.4"/>
      <rect class="cls-36" x="207" y="30.3" width="1.9" height="313.4"/>
      <rect class="cls-58" x="208.9" y="30.3" width="1.9" height="313.4"/>
      <rect class="cls-134" x="210.8" y="30.3" width="1.9" height="313.4"/>
      <rect class="cls-134" x="212.7" y="30.3" width="1.9" height="313.4"/>
      <rect class="cls-61" x="214.6" y="30.3" width="1.9" height="313.4"/>
      <rect class="cls-61" x="216.5" y="30.3" width="1.9" height="313.4"/>
      <rect class="cls-115" x="218.4" y="30.3" width="1.9" height="313.4"/>
      <rect class="cls-124" x="220.3" y="30.3" width="1.9" height="313.4"/>
      <rect class="cls-21" x="222.2" y="30.3" width="1.9" height="313.4"/>
      <rect class="cls-21" x="224.1" y="30.3" width="1.9" height="313.4"/>
      <rect class="cls-81" x="226" y="30.3" width="1.9" height="313.4"/>
      <rect class="cls-140" x="227.9" y="30.3" width="1.9" height="313.4"/>
      <rect class="cls-140" x="229.8" y="30.3" width="1.9" height="313.4"/>
      <rect class="cls-87" x="231.7" y="30.3" width="1.9" height="313.4"/>
      <rect class="cls-87" x="233.6" y="30.3" width="1.9" height="313.4"/>
      <rect class="cls-38" x="235.5" y="30.3" width="1.9" height="313.4"/>
      <rect class="cls-38" x="237.4" y="30.3" width="1.9" height="313.4"/>
      <rect class="cls-96" x="239.4" y="30.3" width="1.9" height="313.4"/>
      <rect class="cls-96" x="241.3" y="30.3" width="1.9" height="313.4"/>
      <rect class="cls-104" x="243.2" y="30.3" width="1.9" height="313.4"/>
      <rect class="cls-86" x="245.1" y="30.3" width="1.9" height="313.4"/>
      <rect class="cls-31" x="247" y="30.3" width="1.9" height="313.4"/>
      <rect class="cls-55" x="248.9" y="30.3" width="1.9" height="313.4"/>
      <rect class="cls-75" x="250.8" y="30.3" width="1.9" height="313.4"/>
      <rect class="cls-62" x="252.7" y="30.3" width="1.9" height="313.4"/>
      <rect class="cls-62" x="254.6" y="30.3" width="1.9" height="313.4"/>
      <rect class="cls-70" x="256.5" y="30.3" width="1.9" height="313.4"/>
      <rect class="cls-105" x="258.4" y="30.3" width="1.9" height="313.4"/>
      <rect class="cls-105" x="260.3" y="30.3" width="1.9" height="313.4"/>
      <rect class="cls-48" x="262.2" y="30.3" width="1.9" height="313.4"/>
      <rect class="cls-48" x="264.1" y="30.3" width="1.9" height="313.4"/>
      <rect class="cls-100" x="266" y="30.3" width="1.9" height="313.4"/>
      <rect class="cls-3" x="267.9" y="30.3" width="1.9" height="313.4"/>
      <rect class="cls-116" x="269.9" y="30.3" width="1.9" height="313.4"/>
      <rect class="cls-51" x="271.8" y="30.3" width="1.9" height="313.4"/>
      <rect class="cls-51" x="273.7" y="30.3" width="1.9" height="313.4"/>
      <rect class="cls-65" x="275.6" y="30.3" width="1.9" height="313.4"/>
      <rect class="cls-12" x="277.5" y="30.3" width="1.9" height="313.4"/>
      <rect class="cls-144" x="279.4" y="30.3" width="1.9" height="313.4"/>
      <rect class="cls-66" x="281.3" y="30.3" width="1.9" height="313.4"/>
      <rect class="cls-66" x="283.2" y="30.3" width="1.9" height="313.4"/>
      <rect class="cls-39" x="285.1" y="30.3" width="1.9" height="313.4"/>
      <rect class="cls-132" x="287" y="30.3" width="1.9" height="313.4"/>
      <rect class="cls-28" x="288.9" y="30.3" width="1.9" height="313.4"/>
      <rect class="cls-28" x="290.8" y="30.3" width="1.9" height="313.4"/>
      <rect class="cls-85" x="292.7" y="30.3" width="1.9" height="313.4"/>
      <rect class="cls-93" x="294.6" y="30.3" width="1.9" height="313.4"/>
      <rect class="cls-93" x="296.5" y="30.3" width="1.9" height="313.4"/>
      <rect class="cls-37" x="298.4" y="30.3" width="1.9" height="313.4"/>
      <rect class="cls-77" x="300.4" y="30.3" width="1.9" height="313.4"/>
      <rect class="cls-101" x="302.3" y="30.3" width="1.9" height="313.4"/>
      <rect class="cls-101" x="304.2" y="30.3" width="1.9" height="313.4"/>
      <rect class="cls-136" x="306.1" y="30.3" width="1.9" height="313.4"/>
      <rect class="cls-50" x="308" y="30.3" width="1.9" height="313.4"/>
      <rect class="cls-50" x="309.9" y="30.3" width="1.9" height="313.4"/>
      <rect class="cls-103" x="311.8" y="30.3" width="1.9" height="313.4"/>
      <rect class="cls-23" x="313.7" y="30.3" width="1.9" height="313.4"/>
      <rect class="cls-137" x="315.6" y="30.3" width="1.9" height="313.4"/>
      <rect class="cls-125" x="317.5" y="30.3" width="1.9" height="313.4"/>
      <rect class="cls-121" x="319.4" y="30.3" width="1.9" height="313.4"/>
      <rect class="cls-142" x="321.3" y="30.3" width="1.9" height="313.4"/>
      <rect class="cls-142" x="323.2" y="30.3" width="1.9" height="313.4"/>
      <rect class="cls-131" x="325.1" y="30.3" width="1.9" height="313.4"/>
      <rect class="cls-8" x="327" y="30.3" width="1.9" height="313.4"/>
      <rect class="cls-106" x="328.9" y="30.3" width="1.9" height="313.4"/>
      <rect class="cls-113" x="330.9" y="30.3" width="1.9" height="313.4"/>
      <rect class="cls-113" x="332.8" y="30.3" width="1.9" height="313.4"/>
      <rect class="cls-57" x="334.7" y="30.3" width="1.9" height="313.4"/>
      <rect class="cls-57" x="336.6" y="30.3" width="1.9" height="313.4"/>
      <rect class="cls-135" x="338.5" y="30.3" width="1.9" height="313.4"/>
      <rect class="cls-108" x="340.4" y="30.3" width="1.9" height="313.4"/>
      <rect class="cls-10" x="342.3" y="30.3" width="1.9" height="313.4"/>
      <rect class="cls-83" x="344.2" y="30.3" width="1.9" height="313.4"/>
      <rect class="cls-83" x="346.1" y="30.3" width="1.9" height="313.4"/>
      <rect class="cls-97" x="348" y="30.3" width="1.9" height="313.4"/>
      <rect class="cls-97" x="349.9" y="30.3" width="1.9" height="313.4"/>
      <rect class="cls-64" x="351.8" y="30.3" width="1.9" height="313.4"/>
      <rect class="cls-98" x="353.7" y="30.3" width="1.9" height="313.4"/>
      <rect class="cls-18" x="355.6" y="30.3" width="1.9" height="313.4"/>
      <rect class="cls-95" x="357.5" y="30.3" width="1.9" height="313.4"/>
      <rect class="cls-95" x="359.4" y="30.3" width="1.9" height="313.4"/>
      <rect class="cls-90" x="361.4" y="30.3" width="1.9" height="313.4"/>
      <rect class="cls-90" x="363.3" y="30.3" width="1.9" height="313.4"/>
      <rect class="cls-30" x="365.2" y="30.3" width="1.9" height="313.4"/>
      <rect class="cls-30" x="367.1" y="30.3" width="1.9" height="313.4"/>
      <rect class="cls-79" x="369" y="30.3" width="1.9" height="313.4"/>
      <rect class="cls-17" x="370.9" y="30.3" width="1.9" height="313.4"/>
      <rect class="cls-17" x="372.8" y="30.3" width="1.9" height="313.4"/>
      <rect class="cls-128" x="374.7" y="30.3" width="1.9" height="313.4"/>
      <rect class="cls-130" x="376.6" y="30.3" width="1.9" height="313.4"/>
      <rect class="cls-73" x="378.5" y="30.3" width="1.9" height="313.4"/>
      <rect class="cls-73" x="380.4" y="30.3" width="1.9" height="313.4"/>
      <rect class="cls-16" x="382.3" y="30.3" width="1.9" height="313.4"/>
      <rect class="cls-42" x="384.2" y="30.3" width="1.9" height="313.4"/>
      <rect class="cls-4" x="386.1" y="30.3" width="1.9" height="313.4"/>
      <rect class="cls-6" x="388" y="30.3" width="1.9" height="313.4"/>
      <rect class="cls-6" x="389.9" y="30.3" width="1.9" height="313.4"/>
      <rect class="cls-53" x="391.9" y="30.3" width="1.9" height="313.4"/>
      <rect class="cls-69" x="393.8" y="30.3" width="1.9" height="313.4"/>
      <rect class="cls-5" x="395.7" y="30.3" width="1.9" height="313.4"/>
      <rect class="cls-14" x="397.6" y="30.3" width="1.9" height="313.4"/>
      <rect class="cls-129" x="399.5" y="30.3" width="1.9" height="313.4"/>
      <rect class="cls-94" x="401.4" y="30.3" width="1.9" height="313.4"/>
      <rect class="cls-138" x="403.3" y="30.3" width="1.9" height="313.4"/>
      <rect class="cls-68" x="405.2" y="30.3" width="1.9" height="313.4"/>
      <rect class="cls-80" x="407.1" y="30.3" width="1.9" height="313.4"/>
      <rect class="cls-71" x="409" y="30.3" width="1.9" height="313.4"/>
      <rect class="cls-67" x="410.9" y="30.3" width="1.9" height="313.4"/>
      <path class="cls-67" d="M412.8,343.7V30.3v313.4Z"/>
    </g>
  </g>
  <g>
    <path class="cls-1" d="M110.4,194.2c2.5-1.9,4.8-4.1,7.2-6.2,12.1-10.6,24.2-21.3,36.3-31.9,6.2-5.5,12.5-10.9,18.7-16.5.9-.8,1.4-.8,2.3,0,6.5,5.9,13,11.8,19.5,17.7,9.9,9,19.8,17.9,29.7,26.9,3.1,2.8,6.1,5.6,9.2,8.3.5.5,1.1.9,1.7,1.4v.7c-1.4,1.5-3,2.8-5.2,2.9-1.9,0-3.7-.5-5.4-1.3-2.9-1.4-5.1-3.7-7.4-5.8-14.2-12.7-28.3-25.4-42.5-38.1-.6-.5-.9-.5-1.5,0-15.4,13-30.8,26.1-46.1,39.1-1.7,1.5-3.4,3-5.3,4.3-2.1,1.5-4.3,2.6-7,2-1.7-.4-2.9-1.5-4-2.8v-.7Z"/>
    <path class="cls-1" d="M127.1,222.6c0-7.7,0-15.4,0-23.1,0-.9.3-1.6,1-2.2,14.7-12.3,29.4-24.6,44.1-37,.8-.7,1.3-.7,2,0,6.9,6.2,13.9,12.3,20.8,18.5,6.9,6.2,13.8,12.3,20.8,18.5.6.6.9,1.2.9,2,0,15.3,0,30.5,0,45.8,0,2.8-1.2,4.1-4,4.1-9.7,0-19.4,0-29,0-1.3,0-1.3-.7-1.3-1.6,0-7.7.1-15.5.2-23.2,0-.6,0-1.2-.2-1.8-.4-2-1.6-3.2-3.7-3.2-4.7,0-9.4,0-14.1,0-1.8,0-3,1.5-3,3.6,0,5.1,0,10.1,0,15.2,0,3.2,0,6.5,0,9.7,0,1-.3,1.4-1.4,1.4-10,0-19.9,0-29.9,0-2.1,0-3.1-1.1-3.1-3.3,0-4,0-8.1,0-12.2,0-3.7,0-7.5,0-11.2Z"/>
    <path class="cls-1" d="M220.3,164.1c0,3.8,0,7.6,0,11.4,0,.3.2.8-.2,1-.4.2-.7-.2-.9-.4-3.5-3-7.1-6-10.6-9-.5-.4-.7-.9-.7-1.6,0-4.3,0-8.6,0-12.9,0-1,.4-1.2,1.3-1.2,3.3,0,6.6,0,9.9,0,1,0,1.3.3,1.3,1.3,0,3.8,0,7.6,0,11.4Z"/>
  </g>
</svg>